<svg xmlns="http://www.w3.org/2000/svg" viewBox="0 0 448 512">
<path d="M224.1 141c-63.6 0-114.9 51.3-114.9 114.9S160.5 370.8 224.1 370.8 339 319.5 339 255.9 287.7 141 224.1 141zm0 189.6a74.7 74.7 0 1 1 74.7-74.7 74.7 74.7 0 0 1-74.7 74.7zm146.4-194.3a26.8 26.8 0 1 1-26.8-26.8 26.8 26.8 0 0 1 26.8 26.8zm76.1 27.2c-1.7-35.9-9.9-67.7-36.2-93.9S363.9 34.3 328 32.6C292.1 30.9 155.9 30.9 120 32.6 84.1 34.3 52.3 42.5 26.1 68.7S-6.3 119.9-8 155.8C-9.7 191.7-9.7 320.3-8 356.2c1.7 35.9 9.9 67.7 36.2 93.9S84.1 477.7 120 479.4c35.9 1.7 172.1 1.7 208 0 35.9-1.7 67.7-9.9 93.9-36.2s34.5-58 36.2-93.9c1.7-35.9 1.7-172.1 0-208z"/>
</svg>